<svg xmlns="http://www.w3.org/2000/svg" viewBox="0 0 96 96">
  <defs>
    <linearGradient id="paper" x1="0" y1="0" x2="0" y2="1">
      <stop offset="0" stop-color="#fff8ee"/>
      <stop offset="1" stop-color="#f1dfc5"/>
    </linearGradient>
    <linearGradient id="ink" x1="0" y1="0" x2="1" y2="1">
      <stop offset="0" stop-color="#9b7650"/>
      <stop offset="1" stop-color="#6d5136"/>
    </linearGradient>
  </defs>
  <rect x="12" y="18" width="72" height="62" rx="12" fill="#f8ead6" stroke="#d7bd99" stroke-width="3"/>
  <path d="M31 10h34a6 6 0 0 1 6 6v18H25V16a6 6 0 0 1 6-6z" fill="url(#paper)" stroke="#8b6844" stroke-width="4"/>
  <path d="M34 26h28M34 38h28M34 50h20" stroke="url(#ink)" stroke-width="4" stroke-linecap="round"/>
  <path d="M22 39h52v34H22z" fill="url(#paper)" stroke="#8b6844" stroke-width="4" rx="7"/>
  <path d="M35 58h26M35 67h18" stroke="#8b6844" stroke-width="4" stroke-linecap="round"/>
  <path d="M68 59l5 5 10-13" fill="none" stroke="#3a7553" stroke-width="5" stroke-linecap="round" stroke-linejoin="round"/>
  <text x="48" y="88" text-anchor="middle" font-family="sans-serif" font-size="12" font-weight="700" fill="#7c5d3f">草稿</text>
</svg>
