<svg xmlns="http://www.w3.org/2000/svg" viewBox="0 0 120 150" width="120" height="150">
  <defs>
    <radialGradient id="leafCloud" cx="50%" cy="40%" r="60%">
      <stop offset="0%" stop-color="#a8b78a" stop-opacity="0.85"/>
      <stop offset="60%" stop-color="#7d9167" stop-opacity="0.7"/>
      <stop offset="100%" stop-color="#5a6e3f" stop-opacity="0.45"/>
    </radialGradient>
    <radialGradient id="leafCloudSoft" cx="50%" cy="50%" r="55%">
      <stop offset="0%" stop-color="#bcc99d" stop-opacity="0.75"/>
      <stop offset="70%" stop-color="#8aa074" stop-opacity="0.55"/>
      <stop offset="100%" stop-color="#5a6e3f" stop-opacity="0.2"/>
    </radialGradient>
  </defs>

  <ellipse cx="60" cy="144" rx="38" ry="3.5" fill="#8b7355" opacity="0.28"/>
  <ellipse cx="60" cy="143" rx="22" ry="2" fill="#3a3a3a" opacity="0.22"/>

  <path d="M 60 142 C 57 118 63 96 60 76 C 58 62 62 50 60 38"
        stroke="#3a3a3a" stroke-width="2.6" fill="none"
        stroke-linecap="round" stroke-linejoin="round" opacity="0.92"/>

  <path d="M 60 92 Q 50 88 42 80 Q 38 76 36 70"
        stroke="#3a3a3a" stroke-width="1.8" fill="none"
        stroke-linecap="round" opacity="0.85"/>

  <path d="M 60 78 Q 72 74 80 66 Q 84 62 86 56"
        stroke="#3a3a3a" stroke-width="1.8" fill="none"
        stroke-linecap="round" opacity="0.85"/>

  <path d="M 60 60 Q 54 54 56 46"
        stroke="#3a3a3a" stroke-width="1.5" fill="none"
        stroke-linecap="round" opacity="0.8"/>

  <path d="M 60 50 Q 66 44 70 38"
        stroke="#3a3a3a" stroke-width="1.4" fill="none"
        stroke-linecap="round" opacity="0.8"/>

  <ellipse cx="38" cy="68" rx="14" ry="9" fill="url(#leafCloudSoft)"/>
  <ellipse cx="40" cy="66" rx="9" ry="6" fill="#5a6e3f" opacity="0.55"/>

  <ellipse cx="84" cy="54" rx="16" ry="11" fill="url(#leafCloud)"/>
  <ellipse cx="82" cy="52" rx="10" ry="7" fill="#5a6e3f" opacity="0.6"/>

  <ellipse cx="58" cy="36" rx="24" ry="15" fill="url(#leafCloud)"/>
  <ellipse cx="56" cy="34" rx="16" ry="10" fill="#5a6e3f" opacity="0.6"/>
  <ellipse cx="64" cy="38" rx="10" ry="7" fill="#7d9167" opacity="0.7"/>

  <ellipse cx="60" cy="22" rx="9" ry="6" fill="url(#leafCloudSoft)"/>
  <ellipse cx="60" cy="22" rx="5" ry="3.5" fill="#5a6e3f" opacity="0.55"/>

  <circle cx="50" cy="32" r="1.6" fill="#c04848" opacity="0.85"/>
  <circle cx="68" cy="40" r="1.5" fill="#c04848" opacity="0.8"/>
  <circle cx="58" cy="26" r="1.4" fill="#c04848" opacity="0.78"/>
</svg>
