<svg xmlns="http://www.w3.org/2000/svg" viewBox="0 0 120 150" width="120" height="150">
  <defs>
    <radialGradient id="leafCloud" cx="50%" cy="40%" r="60%">
      <stop offset="0%" stop-color="#a8b78a" stop-opacity="0.9"/>
      <stop offset="60%" stop-color="#7d9167" stop-opacity="0.75"/>
      <stop offset="100%" stop-color="#5a6e3f" stop-opacity="0.5"/>
    </radialGradient>
    <radialGradient id="leafCloudSoft" cx="50%" cy="50%" r="55%">
      <stop offset="0%" stop-color="#bcc99d" stop-opacity="0.8"/>
      <stop offset="70%" stop-color="#8aa074" stop-opacity="0.6"/>
      <stop offset="100%" stop-color="#5a6e3f" stop-opacity="0.25"/>
    </radialGradient>
    <radialGradient id="soilBase" cx="50%" cy="60%" r="70%">
      <stop offset="0%" stop-color="#7a6348" stop-opacity="0.45"/>
      <stop offset="60%" stop-color="#8b7355" stop-opacity="0.32"/>
      <stop offset="100%" stop-color="#a68c6c" stop-opacity="0"/>
    </radialGradient>
  </defs>

  <!-- 不规则手绘土壤 -->
  <path d="M 22 145 Q 28 140 34 144 Q 40 147 48 142 Q 56 138 60 143 Q 66 148 74 143 Q 82 139 88 144 Q 94 149 100 144 Q 106 139 112 145 L 112 150 L 22 150 Z"
        fill="url(#soilBase)" opacity="0.7"/>
  <path d="M 28 143 Q 33 139 40 142 Q 46 145 54 140 Q 60 136 64 141 Q 70 146 78 141 Q 84 137 90 142 Q 96 147 102 142 L 102 148 L 28 148 Z"
        fill="#5a4a38" opacity="0.25"/>
  <path d="M 32 142 Q 36 138 42 141 Q 48 144 56 139 Q 62 135 66 140 Q 72 145 80 140 Q 86 136 92 141 Q 98 146 104 141 L 104 147 L 32 147 Z"
        fill="#3a3a3a" opacity="0.18"/>

  <!-- 土壤颗粒点缀 -->
  <circle cx="34" cy="143" r="1.2" fill="#4a3a28" opacity="0.4"/>
  <circle cx="46" cy="141" r="1" fill="#4a3a28" opacity="0.35"/>
  <circle cx="58" cy="144" r="0.9" fill="#4a3a28" opacity="0.32"/>
  <circle cx="70" cy="142" r="1.1" fill="#4a3a28" opacity="0.38"/>
  <circle cx="82" cy="143" r="1" fill="#4a3a28" opacity="0.34"/>
  <circle cx="94" cy="142" r="1.2" fill="#4a3a28" opacity="0.36"/>

  <!-- 主干 -->
  <path d="M 60 140 C 56 126 64 116 60 102 C 57 94 63 86 60 76 C 57 68 63 60 60 50"
        stroke="#3a3a3a" stroke-width="2.8" fill="none"
        stroke-linecap="round" stroke-linejoin="round" opacity="0.95"/>

  <!-- 阶段1：底部小叶子 -->
  <ellipse cx="50" cy="102" rx="5.5" ry="4" fill="url(#leafCloudSoft)"/>
  <ellipse cx="70" cy="100" rx="5" ry="3.8" fill="url(#leafCloudSoft)"/>
  <ellipse cx="50.5" cy="101.5" rx="3.5" ry="2.5" fill="#5a6e3f" opacity="0.52"/>
  <ellipse cx="69.5" cy="99.5" rx="3.2" ry="2.3" fill="#5a6e3f" opacity="0.48"/>

  <!-- 阶段2：第一层枝条 + 叶子 -->
  <path d="M 60 98 Q 52 94 46 88 Q 43 85 42 80"
        stroke="#3a3a3a" stroke-width="1.7" fill="none"
        stroke-linecap="round" opacity="0.85"/>
  <path d="M 60 92 Q 68 88 74 82 Q 77 79 78 74"
        stroke="#3a3a3a" stroke-width="1.7" fill="none"
        stroke-linecap="round" opacity="0.85"/>

  <!-- 阶段2-3：第二层叶子 -->
  <ellipse cx="46" cy="86" rx="8" ry="5.5" fill="url(#leafCloudSoft)"/>
  <ellipse cx="76" cy="78" rx="7.5" ry="5" fill="url(#leafCloudSoft)"/>
  <ellipse cx="46.5" cy="85.5" rx="5" ry="3.5" fill="#5a6e3f" opacity="0.55"/>
  <ellipse cx="75.5" cy="77.5" rx="4.8" ry="3.3" fill="#5a6e3f" opacity="0.52"/>

  <!-- 阶段3：顶部主干 + 叶子 -->
  <path d="M 60 66 Q 55 60 57 52"
        stroke="#3a3a3a" stroke-width="1.5" fill="none"
        stroke-linecap="round" opacity="0.82"/>
  <path d="M 60 60 Q 65 55 68 48"
        stroke="#3a3a3a" stroke-width="1.4" fill="none"
        stroke-linecap="round" opacity="0.82"/>
  <path d="M 60 76 Q 53 72 48 66 Q 45 62 44 56"
        stroke="#3a3a3a" stroke-width="1.6" fill="none"
        stroke-linecap="round" opacity="0.83"/>
  <path d="M 60 70 Q 67 66 73 60 Q 76 56 78 50"
        stroke="#3a3a3a" stroke-width="1.6" fill="none"
        stroke-linecap="round" opacity="0.83"/>

  <!-- 阶段3-4：大叶子团 -->
  <ellipse cx="42" cy="62" rx="11" ry="7.5" fill="url(#leafCloudSoft)"/>
  <ellipse cx="78" cy="54" rx="10.5" ry="7" fill="url(#leafCloudSoft)"/>
  <ellipse cx="42.5" cy="61.5" rx="7" ry="5" fill="#5a6e3f" opacity="0.58"/>
  <ellipse cx="77.5" cy="53.5" rx="6.8" ry="4.8" fill="#5a6e3f" opacity="0.56"/>

  <!-- 阶段4：完整树冠 -->
  <ellipse cx="58" cy="38" rx="21" ry="13" fill="url(#leafCloud)"/>
  <ellipse cx="56" cy="36" rx="14" ry="9" fill="#5a6e3f" opacity="0.62"/>
  <ellipse cx="64" cy="40" rx="9" ry="6" fill="#7d9167" opacity="0.72"/>
  <ellipse cx="60" cy="24" rx="7.5" ry="5" fill="url(#leafCloudSoft)"/>
  <ellipse cx="60" cy="24" rx="4.5" ry="3.2" fill="#5a6e3f" opacity="0.58"/>

  <!-- 梅花点缀 -->
  <circle cx="49" cy="34" r="1.45" fill="#c04848" opacity="0.88"/>
  <circle cx="66" cy="38" r="1.38" fill="#c04848" opacity="0.82"/>
  <circle cx="58" cy="27" r="1.32" fill="#c04848" opacity="0.76"/>
</svg>
