<svg xmlns="http://www.w3.org/2000/svg" viewBox="0 0 120 150" width="120" height="150">
  <defs>
    <radialGradient id="leafCloud" cx="50%" cy="40%" r="60%">
      <stop offset="0%" stop-color="#a8b78a" stop-opacity="0.9"/>
      <stop offset="60%" stop-color="#7d9167" stop-opacity="0.75"/>
      <stop offset="100%" stop-color="#5a6e3f" stop-opacity="0.5"/>
    </radialGradient>
    <radialGradient id="leafCloudSoft" cx="50%" cy="50%" r="55%">
      <stop offset="0%" stop-color="#bcc99d" stop-opacity="0.8"/>
      <stop offset="70%" stop-color="#8aa074" stop-opacity="0.6"/>
      <stop offset="100%" stop-color="#5a6e3f" stop-opacity="0.25"/>
    </radialGradient>
    <radialGradient id="soilBase" cx="50%" cy="60%" r="70%">
      <stop offset="0%" stop-color="#7a6348" stop-opacity="0.45"/>
      <stop offset="60%" stop-color="#8b7355" stop-opacity="0.32"/>
      <stop offset="100%" stop-color="#a68c6c" stop-opacity="0"/>
    </radialGradient>
  </defs>

  <!-- 不规则手绘土壤 -->
  <path d="M 22 145 Q 28 140 34 144 Q 40 147 48 142 Q 56 138 60 143 Q 66 148 74 143 Q 82 139 88 144 Q 94 149 100 144 Q 106 139 112 145 L 112 150 L 22 150 Z"
        fill="url(#soilBase)" opacity="0.7"/>
  <path d="M 28 143 Q 33 139 40 142 Q 46 145 54 140 Q 60 136 64 141 Q 70 146 78 141 Q 84 137 90 142 Q 96 147 102 142 L 102 148 L 28 148 Z"
        fill="#5a4a38" opacity="0.25"/>
  <path d="M 32 142 Q 36 138 42 141 Q 48 144 56 139 Q 62 135 66 140 Q 72 145 80 140 Q 86 136 92 141 Q 98 146 104 141 L 104 147 L 32 147 Z"
        fill="#3a3a3a" opacity="0.18"/>

  <!-- 土壤颗粒点缀 -->
  <circle cx="34" cy="143" r="1.2" fill="#4a3a28" opacity="0.4"/>
  <circle cx="46" cy="141" r="1" fill="#4a3a28" opacity="0.35"/>
  <circle cx="58" cy="144" r="0.9" fill="#4a3a28" opacity="0.32"/>
  <circle cx="70" cy="142" r="1.1" fill="#4a3a28" opacity="0.38"/>
  <circle cx="82" cy="143" r="1" fill="#4a3a28" opacity="0.34"/>
  <circle cx="94" cy="142" r="1.2" fill="#4a3a28" opacity="0.36"/>

  <!-- 主干 -->
  <path d="M 60 140 C 56 126 64 116 60 102 C 57 94 63 86 60 76 C 57 68 63 60 60 50"
        stroke="#3a3a3a" stroke-width="2.8" fill="none"
        stroke-linecap="round" stroke-linejoin="round" opacity="0.95"/>

  <!-- 阶段1：小苗（第一对叶子） -->
  <path d="M 60 105 Q 55 102 52 96 Q 50 92 52 88 Q 54 84 58 82 Q 60 81 62 83 Q 66 87 68 92 Q 70 97 68 102 Q 66 106 60 105 Z"
        fill="url(#leafCloudSoft)"/>
  <path d="M 60 105 Q 65 102 68 96 Q 70 92 68 88 Q 66 84 62 82 Q 60 81 58 83 Q 54 87 52 92 Q 50 97 52 102 Q 54 106 60 105 Z"
        fill="url(#leafCloudSoft)"/>
  <path d="M 60 105 Q 55 102 53 96 Q 51 92 53 87 Q 56 83 60 82"
        stroke="#5a6e3f" stroke-width="1.2" fill="none" opacity="0.7"/>
  <path d="M 60 105 Q 65 102 67 96 Q 69 92 67 87 Q 64 83 60 82"
        stroke="#5a6e3f" stroke-width="1.2" fill="none" opacity="0.7"/>

  <!-- 阶段2：第二层叶子 -->
  <path d="M 60 92 Q 48 88 42 82 Q 38 78 40 74 Q 42 70 48 68 Q 54 66 60 68"
        fill="url(#leafCloudSoft)" opacity="0.95"/>
  <path d="M 60 92 Q 72 88 78 82 Q 82 78 80 74 Q 78 70 72 68 Q 66 66 60 68"
        fill="url(#leafCloudSoft)" opacity="0.95"/>
  <path d="M 60 92 Q 50 88 44 82 Q 40 78 42 74 Q 45 70 50 68 Q 56 66 60 68"
        stroke="#5a6e3f" stroke-width="1.3" fill="none" opacity="0.65"/>
  <path d="M 60 92 Q 70 88 76 82 Q 80 78 78 74 Q 75 70 70 68 Q 64 66 60 68"
        stroke="#5a6e3f" stroke-width="1.3" fill="none" opacity="0.65"/>

  <!-- 阶段2-3：第三层叶子 -->
  <path d="M 60 80 Q 44 76 38 68 Q 36 62 38 56 Q 40 50 48 46 Q 56 42 60 44"
        fill="url(#leafCloud)" opacity="0.9"/>
  <path d="M 60 80 Q 76 76 82 68 Q 84 62 82 56 Q 80 50 72 46 Q 64 42 60 44"
        fill="url(#leafCloud)" opacity="0.9"/>
  <path d="M 60 80 Q 46 76 40 68 Q 38 62 40 56 Q 42 50 50 46 Q 58 42 60 44"
        stroke="#5a6e3f" stroke-width="1.4" fill="none" opacity="0.6"/>
  <path d="M 60 80 Q 74 76 80 68 Q 82 62 80 56 Q 78 50 70 46 Q 62 42 60 44"
        stroke="#5a6e3f" stroke-width="1.4" fill="none" opacity="0.6"/>

  <!-- 阶段3-4：第四层大叶子 -->
  <path d="M 60 64 Q 42 58 36 48 Q 34 38 38 30 Q 42 22 52 18 Q 60 16 64 18"
        fill="url(#leafCloud)" opacity="0.95"/>
  <path d="M 60 64 Q 78 58 84 48 Q 86 38 82 30 Q 78 22 68 18 Q 60 16 56 18"
        fill="url(#leafCloud)" opacity="0.95"/>
  <path d="M 60 64 Q 44 58 38 48 Q 36 38 40 30 Q 44 22 54 18 Q 62 16 64 18"
        stroke="#5a6e3f" stroke-width="1.5" fill="none" opacity="0.55"/>
  <path d="M 60 64 Q 76 58 82 48 Q 84 38 80 30 Q 76 22 66 18 Q 58 16 56 18"
        stroke="#5a6e3f" stroke-width="1.5" fill="none" opacity="0.55"/>

  <!-- 阶段4：顶部小叶子 -->
  <path d="M 60 48 Q 54 44 52 38 Q 50 32 54 28 Q 58 24 60 22"
        fill="url(#leafCloudSoft)" opacity="0.9"/>
  <path d="M 60 48 Q 66 44 68 38 Q 70 32 66 28 Q 62 24 60 22"
        fill="url(#leafCloudSoft)" opacity="0.9"/>

  <!-- 枝条 -->
  <path d="M 60 98 Q 52 94 46 88 Q 43 85 42 80"
        stroke="#3a3a3a" stroke-width="1.7" fill="none"
        stroke-linecap="round" opacity="0.85"/>
  <path d="M 60 92 Q 68 88 74 82 Q 77 79 78 74"
        stroke="#3a3a3a" stroke-width="1.7" fill="none"
        stroke-linecap="round" opacity="0.85"/>
  <path d="M 60 66 Q 55 60 57 52"
        stroke="#3a3a3a" stroke-width="1.5" fill="none"
        stroke-linecap="round" opacity="0.82"/>
  <path d="M 60 60 Q 65 55 68 48"
        stroke="#3a3a3a" stroke-width="1.4" fill="none"
        stroke-linecap="round" opacity="0.82"/>

  <!-- 梅花点缀 -->
  <circle cx="49" cy="34" r="1.45" fill="#c04848" opacity="0.88"/>
  <circle cx="66" cy="38" r="1.38" fill="#c04848" opacity="0.82"/>
  <circle cx="58" cy="27" r="1.32" fill="#c04848" opacity="0.76"/>
</svg>
