<svg width="180" height="160" viewBox="0 0 180 160" fill="none" xmlns="http://www.w3.org/2000/svg">
  <ellipse cx="114" cy="138" rx="55" ry="18" fill="url(#shadow)" />
  <path d="M120 62C143.196 62 162 80.804 162 104V110H78V104C78 80.804 96.804 62 120 62Z" fill="url(#crown1)" />
  <circle cx="97" cy="82" r="24" fill="url(#crown2)" />
  <circle cx="141" cy="84" r="26" fill="url(#crown3)" />
  <path d="M116 98H124V138H116V98Z" fill="url(#trunk)" />
  <path d="M112 136H128C140.15 136 150 145.85 150 158H90C90 145.85 99.8497 136 112 136Z" fill="url(#hill)" />
  <defs>
    <radialGradient id="shadow" cx="0" cy="0" r="1" gradientUnits="userSpaceOnUse" gradientTransform="translate(114 138) rotate(90) scale(18 55)">
      <stop stop-color="#D9D2C7" stop-opacity="0.7"/>
      <stop offset="1" stop-color="#EDE8DE" stop-opacity="0"/>
    </radialGradient>
    <linearGradient id="crown1" x1="120" y1="62" x2="120" y2="110" gradientUnits="userSpaceOnUse">
      <stop stop-color="#E8EADF"/>
      <stop offset="1" stop-color="#C9D5C0"/>
    </linearGradient>
    <linearGradient id="crown2" x1="97" y1="58" x2="97" y2="106" gradientUnits="userSpaceOnUse">
      <stop stop-color="#F2F1EA"/>
      <stop offset="1" stop-color="#D5DEC9"/>
    </linearGradient>
    <linearGradient id="crown3" x1="141" y1="58" x2="141" y2="110" gradientUnits="userSpaceOnUse">
      <stop stop-color="#E7E4DB"/>
      <stop offset="1" stop-color="#C3CFB8"/>
    </linearGradient>
    <linearGradient id="trunk" x1="120" y1="98" x2="120" y2="138" gradientUnits="userSpaceOnUse">
      <stop stop-color="#C2A88D"/>
      <stop offset="1" stop-color="#A68769"/>
    </linearGradient>
    <linearGradient id="hill" x1="120" y1="136" x2="120" y2="158" gradientUnits="userSpaceOnUse">
      <stop stop-color="#E8E1D4"/>
      <stop offset="1" stop-color="#D9D1C3"/>
    </linearGradient>
  </defs>
</svg>
