<?xml version="1.0" encoding="UTF-8"?>
<svg xmlns="http://www.w3.org/2000/svg" viewBox="0 0 108 148" width="108" height="148" role="img" aria-label="Layered ink growth tree">
    <g class="ink-layer layer-soil">
      <path d="M20 130 C31 126 43 127 53 127 C66 127 78 126 91 130" fill="none" stroke="rgba(45, 39, 33, 0.46)" stroke-width="1.45" stroke-linecap="round"/>
      <path d="M28 133 C43 135 65 135 86 132" fill="none" stroke="rgba(125, 97, 63, 0.16)" stroke-width="4" stroke-linecap="round"/>
      <path d="M35 128 C43 126 50 129 58 128 C68 126 76 128 84 131" fill="none" stroke="rgba(103, 78, 52, 0.2)" stroke-width="1.8" stroke-linecap="round"/>
      <circle cx="38" cy="132" r="0.9" fill="rgba(61, 51, 40, 0.3)"/>
      <circle cx="59" cy="131" r="0.72" fill="rgba(61, 51, 40, 0.2)"/>
      <circle cx="77" cy="132" r="0.82" fill="rgba(61, 51, 40, 0.2)"/>
    </g>
    <g class="ink-layer layer-trunk" fill="none" stroke-linecap="round" stroke-linejoin="round">
      <path d="M55 129 C54 117 56 105 55 94 C54 82 58 71 57 59 C56 50 59 43 62 36" stroke="#2f2a26" stroke-width="2.45" opacity="0.96"/>
      <path d="M57 128 C59 113 58 100 59 86 C61 72 60 56 64 38" stroke="#7d6b59" stroke-width="0.85" opacity="0.34"/>
      <path d="M55 99 C48 94 42 88 36 79" stroke="#302b26" stroke-width="1.38"/>
      <path d="M56 89 C66 84 74 77 81 67" stroke="#302b26" stroke-width="1.42"/>
      <path d="M57 74 C50 70 43 64 39 55" stroke="#302b26" stroke-width="1.18" opacity="0.86"/>
      <path d="M59 64 C68 59 74 52 79 42" stroke="#302b26" stroke-width="1.2" opacity="0.86"/>
      <path d="M61 51 C56 48 52 44 49 38" stroke="#302b26" stroke-width="1" opacity="0.68"/>
    </g>
    <g class="ink-layer layer-bud">
      <g transform="rotate(-12 53 99)">
        <path d="M55 108 C48 104 46 96 51 89 C57 93 59 101 55 108 Z" fill="#88a66d" opacity="0.92"/>
        <path d="M55 106 C53 100 52 95 51 90" fill="none" stroke="rgba(48, 78, 39, 0.46)" stroke-width="0.78" stroke-linecap="round"/>
      </g>
      <g transform="rotate(14 58 99)">
        <path d="M56 108 C63 103 64 96 59 89 C53 94 52 102 56 108 Z" fill="#78985f" opacity="0.9"/>
        <path d="M56 106 C58 100 58 95 59 90" fill="none" stroke="rgba(48, 78, 39, 0.46)" stroke-width="0.78" stroke-linecap="round"/>
      </g>
    </g>
    <g class="ink-layer layer-mid">
      <g transform="rotate(-16 36 72)">
        <path d="M36 79 C27 72 29 61 40 57 C49 64 46 75 36 79 Z" fill="#78945f" opacity="0.9"/>
        <path d="M36 78 C38 70 39 64 40 58" fill="none" stroke="rgba(46, 75, 37, 0.4)" stroke-width="0.78" stroke-linecap="round"/>
      </g>
      <g transform="rotate(7 46 78)">
        <path d="M46 87 C38 83 38 72 46 67 C54 73 53 82 46 87 Z" fill="#8aa86d" opacity="0.82"/>
        <path d="M46 85 C46 78 46 72 46 68" fill="none" stroke="rgba(46, 75, 37, 0.32)" stroke-width="0.7" stroke-linecap="round"/>
      </g>
      <g transform="rotate(20 80 58)">
        <path d="M80 69 C91 58 86 47 74 47 C66 56 70 66 80 69 Z" fill="#6f8d58" opacity="0.93"/>
        <path d="M80 67 C78 60 77 54 75 48" fill="none" stroke="rgba(46, 75, 37, 0.42)" stroke-width="0.78" stroke-linecap="round"/>
      </g>
      <g transform="rotate(-8 68 71)">
        <path d="M68 80 C77 74 75 63 66 61 C58 68 60 77 68 80 Z" fill="#7f9d65" opacity="0.84"/>
        <path d="M68 79 C67 72 66 67 66 62" fill="none" stroke="rgba(46, 75, 37, 0.34)" stroke-width="0.7" stroke-linecap="round"/>
      </g>
      <g transform="rotate(-27 32 86)">
        <path d="M32 91 C26 86 27 78 35 75 C41 81 40 89 32 91 Z" fill="#6e8b57" opacity="0.62"/>
        <path d="M33 90 C34 84 34 80 35 76" fill="none" stroke="rgba(46, 75, 37, 0.25)" stroke-width="0.6" stroke-linecap="round"/>
      </g>
      <g transform="rotate(29 73 84)">
        <path d="M73 87 C80 83 79 75 72 72 C66 77 67 84 73 87 Z" fill="#88a36d" opacity="0.58"/>
        <path d="M73 86 C73 81 72 76 72 73" fill="none" stroke="rgba(46, 75, 37, 0.23)" stroke-width="0.58" stroke-linecap="round"/>
      </g>
    </g>
    <g class="ink-layer layer-top">
      <g transform="rotate(-22 61 28)">
        <path d="M61 38 C53 31 56 20 66 17 C75 25 71 35 61 38 Z" fill="#8ba970" opacity="0.9"/>
        <path d="M61 36 C62 29 64 23 66 18" fill="none" stroke="rgba(46, 75, 37, 0.38)" stroke-width="0.72" stroke-linecap="round"/>
      </g>
      <g transform="rotate(8 49 31)">
        <path d="M49 40 C40 34 43 23 53 20 C61 28 58 38 49 40 Z" fill="#7f9f64" opacity="0.78"/>
        <path d="M49 39 C50 32 51 26 53 21" fill="none" stroke="rgba(46, 75, 37, 0.3)" stroke-width="0.68" stroke-linecap="round"/>
      </g>
      <g transform="rotate(27 77 32)">
        <path d="M77 43 C87 35 84 24 73 22 C65 31 68 41 77 43 Z" fill="#6e8d57" opacity="0.88"/>
        <path d="M77 42 C76 35 75 29 73 23" fill="none" stroke="rgba(46, 75, 37, 0.36)" stroke-width="0.72" stroke-linecap="round"/>
      </g>
      <g transform="rotate(-10 40 45)">
        <path d="M40 57 C30 49 33 37 44 34 C53 42 50 53 40 57 Z" fill="#71905a" opacity="0.78"/>
        <path d="M40 55 C41 48 42 41 44 35" fill="none" stroke="rgba(46, 75, 37, 0.3)" stroke-width="0.68" stroke-linecap="round"/>
      </g>
      <g transform="rotate(17 62 48)">
        <path d="M62 58 C53 52 55 41 64 38 C74 44 71 54 62 58 Z" fill="#8aac6f" opacity="0.84"/>
        <path d="M62 56 C63 50 63 44 64 39" fill="none" stroke="rgba(46, 75, 37, 0.32)" stroke-width="0.68" stroke-linecap="round"/>
      </g>
      <g transform="rotate(-19 74 49)">
        <path d="M74 59 C84 52 82 41 72 39 C64 46 66 56 74 59 Z" fill="#789760" opacity="0.74"/>
        <path d="M74 58 C73 51 72 45 72 40" fill="none" stroke="rgba(46, 75, 37, 0.28)" stroke-width="0.66" stroke-linecap="round"/>
      </g>
      <g transform="rotate(34 57 59)">
        <path d="M57 65 C50 61 50 53 58 50 C64 55 64 63 57 65 Z" fill="#6b8954" opacity="0.56"/>
        <path d="M57 64 C58 59 58 55 58 51" fill="none" stroke="rgba(46, 75, 37, 0.22)" stroke-width="0.58" stroke-linecap="round"/>
      </g>
      <g transform="rotate(-32 51 52)">
        <path d="M51 56 C45 52 45 45 52 42 C58 47 58 54 51 56 Z" fill="#91ad73" opacity="0.48"/>
        <path d="M51 55 C52 50 52 46 52 43" fill="none" stroke="rgba(46, 75, 37, 0.18)" stroke-width="0.52" stroke-linecap="round"/>
      </g>
    </g>
    <g class="ink-layer layer-flower">
      <circle cx="61" cy="29" r="1.12" fill="#b94f4b" opacity="0.72"/>
      <circle cx="76" cy="34" r="0.92" fill="#b94f4b" opacity="0.58"/>
      <circle cx="42" cy="47" r="0.98" fill="#b94f4b" opacity="0.54"/>
      <circle cx="66" cy="48" r="0.72" fill="#b94f4b" opacity="0.46"/>
    </g>
  </svg>
